<mxfile host="app.diagrams.net" modified="2023-08-21T19:00:23.650Z" agent="Mozilla/5.0 (Macintosh; Intel Mac OS X 10_15_7) AppleWebKit/605.1.15 (KHTML, like Gecko) Version/15.6.1 Safari/605.1.15" version="21.6.6" etag="DpDah8-SVGnyKJ4jl-3L" type="github">
  <diagram name="PÃ¡gina-1" id="X2LjQog8zoptNqH97UXX">
    <mxGraphModel>
      <root>
        <mxCell id="0" />
        <mxCell id="1" parent="0" />
      </root>
    </mxGraphModel>
  </diagram>
</mxfile>
